<?xml version="1.0" encoding="UTF-8"?>
<svg version="1.1" xmlns="http://www.w3.org/2000/svg" width="200" height="200">
<path d="M0 0 C66 0 132 0 200 0 C200 66 200 132 200 200 C134 200 68 200 0 200 C0 134 0 68 0 0 Z " fill="#2D3B3F" transform="translate(0,0)"/>
<path d="M0 0 C66 0 132 0 200 0 C200 66 200 132 200 200 C134 200 68 200 0 200 C0 134 0 68 0 0 Z M48.1875 27.0625 C47.39730469 27.56910156 46.60710938 28.07570313 45.79296875 28.59765625 C45.20128906 29.06042969 44.60960937 29.52320312 44 30 C44 30.66 44 31.32 44 32 C42.35 32.66 40.7 33.32 39 34 C39 34.66 39 35.32 39 36 C38.13375 36.3403125 38.13375 36.3403125 37.25 36.6875 C34.41025155 38.34401993 32.98500033 40.39468706 31 43 C30.01 43.928125 30.01 43.928125 29 44.875 C27.19176917 46.79624525 26.13173675 48.40210095 24.875 50.6875 C23 54 23 54 21 55 C19.94633506 57.40669986 18.98120128 59.79241623 18.0625 62.25 C15.33714324 69.48509032 15.33714324 69.48509032 13.49609375 72.296875 C8.3933885 81.51638422 8.61722525 91.42390835 8.8125 101.6875 C8.82758903 103.08266768 8.84126991 104.47785134 8.85351562 105.87304688 C8.88856132 109.24911584 8.93769492 112.62434276 9 116 C9.66 116 10.32 116 11 116 C11.02126953 116.83917969 11.02126953 116.83917969 11.04296875 117.6953125 C11.6869154 128.52057776 15.89052296 138.53800547 21 148 C21.66 148 22.32 148 23 148 C23.24492187 148.71414062 23.48984375 149.42828125 23.7421875 150.1640625 C27.1678746 157.88781664 33.85553209 164.2541281 40.29296875 169.57421875 C42 171 42 171 44.125 173.25 C46.52412148 175.48918005 49.02503227 176.63151484 52 178 C53.0725 178.556875 54.145 179.11375 55.25 179.6875 C57.79296777 181.14357653 57.79296777 181.14357653 60 181 C60 181.66 60 182.32 60 183 C79.79222165 190.99008024 104.09521654 193.40123592 125 188 C128.21712945 186.64185993 128.21712945 186.64185993 131 185 C132.34940401 184.58822311 133.70429995 184.19426434 135.0625 183.8125 C155.33492234 177.25979783 172.35996496 159.04687434 181.9375 140.5625 C183.3863508 137.66013971 184 136.28426997 184 133 C184.66 133 185.32 133 186 133 C188.63053833 121.7262643 190.389489 110.85569138 190.375 99.25 C190.37693359 97.77080078 190.37693359 97.77080078 190.37890625 96.26171875 C190.29955426 90.95956275 189.78542622 86.06577503 188.48535156 80.92114258 C187.82482582 78.30661688 187.40979029 75.66363688 187 73 C186.34 73 185.68 73 185 73 C184.9175 72.360625 184.835 71.72125 184.75 71.0625 C181.07388515 56.05169771 170.6614594 43.62124091 159 34 C158.31035156 33.4225 157.62070313 32.845 156.91015625 32.25 C149.57724273 26.30941183 141.57302257 20.10621594 132 19 C132 18.34 132 17.68 132 17 C130.35497391 16.53877773 128.70892303 16.0812105 127.0625 15.625 C126.14597656 15.36976562 125.22945313 15.11453125 124.28515625 14.8515625 C123.20105469 14.57054687 122.11695312 14.28953125 121 14 C120.34491455 13.82355957 119.6898291 13.64711914 119.01489258 13.46533203 C94.61510698 7.37973845 68.86161779 13.6568946 48.1875 27.0625 Z " fill="#FBFCFC" transform="translate(0,0)"/>
<path d="M0 0 C0.99854004 -0.00161133 1.99708008 -0.00322266 3.02587891 -0.00488281 C9.07482272 0.08629202 14.60042705 0.80284531 20.4375 2.375 C21.52160156 2.65601563 22.60570313 2.93703125 23.72265625 3.2265625 C24.63917969 3.48179688 25.55570312 3.73703125 26.5 4 C27.90958984 4.39058594 27.90958984 4.39058594 29.34765625 4.7890625 C30.38212891 5.07910156 30.38212891 5.07910156 31.4375 5.375 C31.4375 6.035 31.4375 6.695 31.4375 7.375 C32.489375 7.54 33.54125 7.705 34.625 7.875 C47.46662096 11.11943781 60.48033045 22.07748646 68.4375 32.375 C69.613125 33.426875 69.613125 33.426875 70.8125 34.5 C77.32123839 41.62861824 82.9749631 51.72225645 84.4375 61.375 C85.0975 61.375 85.7575 61.375 86.4375 61.375 C86.57027344 62.29023437 86.70304688 63.20546875 86.83984375 64.1484375 C87.10474609 65.93121094 87.10474609 65.93121094 87.375 67.75 C87.54902344 68.93335937 87.72304687 70.11671875 87.90234375 71.3359375 C88.27212786 74.28202381 88.27212786 74.28202381 89.4375 76.375 C90.73313521 91.72425632 88.91849608 106.45644539 85.4375 121.375 C84.7775 121.375 84.1175 121.375 83.4375 121.375 C83.34210938 122.23996094 83.24671875 123.10492188 83.1484375 123.99609375 C80.09549596 138.50595325 64.57034467 154.11403346 52.81640625 162.171875 C50.05483398 163.96440735 47.26195155 165.68356626 44.4375 167.375 C43.66148437 167.85195312 42.88546875 168.32890625 42.0859375 168.8203125 C36.73818175 171.97605529 31.42189101 173.79177509 25.4375 175.375 C24.220625 175.74625 23.00375 176.1175 21.75 176.5 C2.96977087 181.46081524 -23.02071475 180.25862903 -40.5625 171.375 C-40.5625 170.715 -40.5625 170.055 -40.5625 169.375 C-42.17125 168.9728125 -42.17125 168.9728125 -43.8125 168.5625 C-47.23562305 167.47851103 -48.88276911 166.60810908 -51.5625 164.375 C-52.305 163.983125 -53.0475 163.59125 -53.8125 163.1875 C-57.93927712 160.46757872 -61.13651576 156.91331159 -64.5625 153.375 C-65.3875 152.59125 -66.2125 151.8075 -67.0625 151 C-77.5625 139.975 -77.5625 139.975 -77.5625 136.375 C-78.2225 136.375 -78.8825 136.375 -79.5625 136.375 C-82.87640353 130.50868566 -85.34033905 124.52956614 -87.375 118.125 C-87.59373779 117.45210938 -87.81247559 116.77921875 -88.0378418 116.0859375 C-89.27004637 112.07147946 -89.79033944 108.56724568 -89.5625 104.375 C-90.2225 104.375 -90.8825 104.375 -91.5625 104.375 C-91.66301836 100.34073413 -91.73472514 96.30697455 -91.78222656 92.27172852 C-91.80207267 90.9053881 -91.82915914 89.53912941 -91.86425781 88.1730957 C-92.18545525 75.32992169 -89.75226944 64.98393834 -83.7265625 53.671875 C-82.58604571 51.42145933 -81.70996284 49.19087901 -80.875 46.8125 C-79.5625 43.375 -79.5625 43.375 -77.5625 42.375 C-77.046875 41.405625 -76.53125 40.43625 -76 39.4375 C-72.85724272 33.71149146 -67.88054384 26.48101461 -61.5625 24.375 C-61.2325 23.385 -60.9025 22.395 -60.5625 21.375 C-58.5 20.6875 -58.5 20.6875 -56.5625 20.375 C-56.5625 19.715 -56.5625 19.055 -56.5625 18.375 C-53.7339155 16.13009167 -50.62444174 14.28502154 -47.5625 12.375 C-46.96695313 11.99859375 -46.37140625 11.6221875 -45.7578125 11.234375 C-31.83109962 2.83836628 -16.04286247 0.02467753 0 0 Z M-30.5625 26.375 C-30.5625 27.035 -30.5625 27.695 -30.5625 28.375 C-31.85800781 28.72498047 -31.85800781 28.72498047 -33.1796875 29.08203125 C-40.01714824 31.6954256 -47.44921679 37.82013624 -51.25 44.1875 C-52.39384889 46.96541874 -53.20169164 49.39833105 -53.5625 52.375 C-54.2225 52.375 -54.8825 52.375 -55.5625 52.375 C-56.74192085 55.91326255 -56.67539189 58.71648726 -56.66015625 62.44921875 C-56.65803383 63.47496758 -56.65803383 63.47496758 -56.65586853 64.5214386 C-56.65027876 66.70183722 -56.63772822 68.88213251 -56.625 71.0625 C-56.61998367 72.54231622 -56.615421 74.02213406 -56.61132812 75.50195312 C-56.60031271 79.12633557 -56.58305512 82.7506577 -56.5625 86.375 C-58.2125 86.375 -59.8625 86.375 -61.5625 86.375 C-61.5625 87.035 -61.5625 87.695 -61.5625 88.375 C-63.0475 88.87 -63.0475 88.87 -64.5625 89.375 C-64.5625 90.035 -64.5625 90.695 -64.5625 91.375 C-66.0475 91.87 -66.0475 91.87 -67.5625 92.375 C-69.64677152 97.09203554 -70.57205523 101.41516761 -68.875 106.390625 C-66.71202745 111.25731323 -64.42138917 113.89597491 -59.5625 116.375 C-57.9125 116.705 -56.2625 117.035 -54.5625 117.375 C-53.5725 120.675 -52.5825 123.975 -51.5625 127.375 C-50.9025 127.375 -50.2425 127.375 -49.5625 127.375 C-49.16998047 128.47134766 -49.16998047 128.47134766 -48.76953125 129.58984375 C-46.06501178 135.83036925 -41.21825548 141.60449635 -35.5625 145.375 C-34.5725 145.705 -33.5825 146.035 -32.5625 146.375 C-32.0675 146.890625 -31.5725 147.40625 -31.0625 147.9375 C-29.54777194 149.72095268 -29.54777194 149.72095268 -26.5625 149.375 C-26.5625 150.035 -26.5625 150.695 -26.5625 151.375 C-21.63265675 153.41493514 -17.98289575 154.78152968 -12.5625 154.375 C-12.5625 155.035 -12.5625 155.695 -12.5625 156.375 C4.6490652 157.16856602 19.00638073 155.66308117 33.4375 145.375 C34.448125 144.67375 35.45875 143.9725 36.5 143.25 C43.88366247 136.70778054 49.73542789 127.86059579 52.4375 118.375 C52.4375 117.715 52.4375 117.055 52.4375 116.375 C53.13875 116.2925 53.84 116.21 54.5625 116.125 C59.16626587 114.9240176 62.30779522 112.38578849 65.8125 109.25 C68.24177388 104.9520539 68.41652864 101.18977518 67.4375 96.375 C65.08515455 91.79930868 62.30188311 88.29011146 57.4375 86.375 C56.4475 86.375 55.4575 86.375 54.4375 86.375 C54.47415771 85.43293701 54.51081543 84.49087402 54.54858398 83.52026367 C54.6689882 79.97323812 54.75615187 76.42842884 54.82202148 72.88012695 C54.85689835 71.35438453 54.90442132 69.82887029 54.96557617 68.30395508 C55.42847666 56.45136874 53.6793722 49.49990163 45.62890625 40.31054688 C37.07457686 31.10557647 27.10150768 24.7381103 14.8125 22.125 C14.02979736 21.95734131 13.24709473 21.78968262 12.44067383 21.61694336 C-2.76446391 18.57158078 -16.14507795 21.2433752 -30.5625 26.375 Z " fill="#E4EBEF" transform="translate(100.5625,11.625)"/>
<path d="M0 0 C3.04860014 1.01620005 3.86666922 1.77391571 6 4 C6.66 4.33 7.32 4.66 8 5 C8 5.66 8 6.32 8 7 C9.0828125 7.4021875 9.0828125 7.4021875 10.1875 7.8125 C13 9 13 9 15.375 10.4375 C18.47015489 12.2798541 21.67670415 13.63958649 25 15 C25.75410156 15.33257812 26.50820312 15.66515625 27.28515625 16.0078125 C28.09855469 16.35585937 28.91195312 16.70390625 29.75 17.0625 C30.48734375 17.38347656 31.2246875 17.70445313 31.984375 18.03515625 C41.03990281 20.93245595 50.24506433 21.37051549 59.6875 21.625 C61.47317383 21.68300781 61.47317383 21.68300781 63.29492188 21.7421875 C66.19647053 21.83540995 69.09802966 21.92121348 72 22 C72 21.34 72 20.68 72 20 C73.98 19.67 75.96 19.34 78 19 C78.09958538 24.10451702 78.17180331 29.20845677 78.21972656 34.3137207 C78.2397241 36.04689395 78.26693148 37.78000075 78.30175781 39.51293945 C78.65019916 57.3090691 78.65019916 57.3090691 74 65 C73.50655895 66.24443426 73.02691515 67.49444464 72.5625 68.75 C67.85292064 78.54592507 55.95624992 85.37628381 46 89 C44.63875 89.53560547 44.63875 89.53560547 43.25 90.08203125 C39.39927766 91.16967518 35.78108683 91.34369608 31.8125 91.3125 C31.06218506 91.30686035 30.31187012 91.3012207 29.53881836 91.29541016 C17.74475751 91.03954072 7.79879228 87.55717594 -0.8125 79.3046875 C-8.41852973 71.34572521 -8.41852973 71.34572521 -9 67 C-9.66 67 -10.32 67 -11 67 C-11.495 64.525 -11.495 64.525 -12 62 C-12.66 62 -13.32 62 -14 62 C-15.62419225 56.48896473 -15.34753718 50.76117937 -15.4375 45.0625 C-15.48326172 43.88236328 -15.52902344 42.70222656 -15.57617188 41.48632812 C-15.68697778 32.97354416 -15.68697778 32.97354416 -13.71240234 30.17529297 C-12.11328125 28.87109375 -12.11328125 28.87109375 -9 27 C-6.36750974 23.49001299 -4.45948171 20.13519818 -3 16 C-2.34 16 -1.68 16 -1 16 C-0.67 10.72 -0.34 5.44 0 0 Z " fill="#F8FAFA" transform="translate(68,68)"/>
<path d="M0 0 C0.99854004 -0.00161133 1.99708008 -0.00322266 3.02587891 -0.00488281 C9.07482272 0.08629202 14.60042705 0.80284531 20.4375 2.375 C21.52160156 2.65601563 22.60570313 2.93703125 23.72265625 3.2265625 C24.63917969 3.48179688 25.55570312 3.73703125 26.5 4 C27.90958984 4.39058594 27.90958984 4.39058594 29.34765625 4.7890625 C30.38212891 5.07910156 30.38212891 5.07910156 31.4375 5.375 C31.4375 6.035 31.4375 6.695 31.4375 7.375 C32.489375 7.54 33.54125 7.705 34.625 7.875 C47.46662096 11.11943781 60.48033045 22.07748646 68.4375 32.375 C69.613125 33.426875 69.613125 33.426875 70.8125 34.5 C77.32123839 41.62861824 82.9749631 51.72225645 84.4375 61.375 C85.0975 61.375 85.7575 61.375 86.4375 61.375 C86.57027344 62.29023437 86.70304688 63.20546875 86.83984375 64.1484375 C87.10474609 65.93121094 87.10474609 65.93121094 87.375 67.75 C87.54902344 68.93335937 87.72304687 70.11671875 87.90234375 71.3359375 C88.27212786 74.28202381 88.27212786 74.28202381 89.4375 76.375 C90.73313521 91.72425632 88.91849608 106.45644539 85.4375 121.375 C84.7775 121.375 84.1175 121.375 83.4375 121.375 C83.34210938 122.23996094 83.24671875 123.10492188 83.1484375 123.99609375 C80.09549596 138.50595325 64.57034467 154.11403346 52.81640625 162.171875 C50.05483398 163.96440735 47.26195155 165.68356626 44.4375 167.375 C43.66148437 167.85195312 42.88546875 168.32890625 42.0859375 168.8203125 C36.73818175 171.97605529 31.42189101 173.79177509 25.4375 175.375 C24.220625 175.74625 23.00375 176.1175 21.75 176.5 C2.96977087 181.46081524 -23.02071475 180.25862903 -40.5625 171.375 C-40.5625 170.715 -40.5625 170.055 -40.5625 169.375 C-42.17125 168.9728125 -42.17125 168.9728125 -43.8125 168.5625 C-47.23562305 167.47851103 -48.88276911 166.60810908 -51.5625 164.375 C-52.305 163.983125 -53.0475 163.59125 -53.8125 163.1875 C-57.93927712 160.46757872 -61.13651576 156.91331159 -64.5625 153.375 C-65.3875 152.59125 -66.2125 151.8075 -67.0625 151 C-77.5625 139.975 -77.5625 139.975 -77.5625 136.375 C-78.2225 136.375 -78.8825 136.375 -79.5625 136.375 C-82.87640353 130.50868566 -85.34033905 124.52956614 -87.375 118.125 C-87.59373779 117.45210938 -87.81247559 116.77921875 -88.0378418 116.0859375 C-89.27004637 112.07147946 -89.79033944 108.56724568 -89.5625 104.375 C-90.2225 104.375 -90.8825 104.375 -91.5625 104.375 C-91.66301836 100.34073413 -91.73472514 96.30697455 -91.78222656 92.27172852 C-91.80207267 90.9053881 -91.82915914 89.53912941 -91.86425781 88.1730957 C-92.18545525 75.32992169 -89.75226944 64.98393834 -83.7265625 53.671875 C-82.58604571 51.42145933 -81.70996284 49.19087901 -80.875 46.8125 C-79.5625 43.375 -79.5625 43.375 -77.5625 42.375 C-77.046875 41.405625 -76.53125 40.43625 -76 39.4375 C-72.85724272 33.71149146 -67.88054384 26.48101461 -61.5625 24.375 C-61.2325 23.385 -60.9025 22.395 -60.5625 21.375 C-58.5 20.6875 -58.5 20.6875 -56.5625 20.375 C-56.5625 19.715 -56.5625 19.055 -56.5625 18.375 C-53.7339155 16.13009167 -50.62444174 14.28502154 -47.5625 12.375 C-46.96695313 11.99859375 -46.37140625 11.6221875 -45.7578125 11.234375 C-31.83109962 2.83836628 -16.04286247 0.02467753 0 0 Z M-56.5625 30.375 C-56.5625 31.035 -56.5625 31.695 -56.5625 32.375 C-57.14515625 32.61605469 -57.7278125 32.85710938 -58.328125 33.10546875 C-69.34505696 39.36508918 -77.18314103 56.6810796 -80.5625 68.375 C-80.91957031 69.60863281 -81.27664062 70.84226563 -81.64453125 72.11328125 C-82.7565127 76.67187057 -82.90638188 81.07317616 -82.875 85.75 C-82.87081055 86.61415527 -82.86662109 87.47831055 -82.86230469 88.36865234 C-82.65068987 100.716602 -81.09575225 113.19614519 -75.5625 124.375 C-74.9025 124.375 -74.2425 124.375 -73.5625 124.375 C-73.40394531 125.47134766 -73.40394531 125.47134766 -73.2421875 126.58984375 C-70.48313241 137.89562695 -56.97778501 150.44157791 -47.4375 156.38671875 C-45.43137876 157.5090421 -45.43137876 157.5090421 -42.5625 158.375 C-42.2325 159.035 -41.9025 159.695 -41.5625 160.375 C-34.15372489 164.91098476 -25.9316986 166.44573669 -17.5625 168.375 C-16.9425415 168.55224609 -16.32258301 168.72949219 -15.68383789 168.91210938 C-2.14180545 171.86707468 14.58956309 170.307834 27.4375 165.375 C28.41332031 165.00117188 29.38914062 164.62734375 30.39453125 164.2421875 C51.00060012 155.53864512 66.84582583 140.05166642 75.4375 119.375 C75.4375 118.385 75.4375 117.395 75.4375 116.375 C76.0975 116.375 76.7575 116.375 77.4375 116.375 C79.96241797 107.1319967 80.76117522 98.25600703 80.8125 88.6875 C80.82603516 87.65568604 80.83957031 86.62387207 80.85351562 85.56079102 C80.80870427 77.72813872 79.99167497 69.48334994 76.4375 62.375 C75.7775 62.375 75.1175 62.375 74.4375 62.375 C74.23125 61.09625 74.025 59.8175 73.8125 58.5 C69.93385533 41.58699842 54.06296803 29.11681185 40.1640625 20.22265625 C38.30924327 19.15464853 38.30924327 19.15464853 35.4375 19.375 C35.4375 18.715 35.4375 18.055 35.4375 17.375 C32.34940305 15.61037317 31.20437864 15.375 27.4375 15.375 C27.4375 14.715 27.4375 14.055 27.4375 13.375 C-0.76237647 4.08562893 -35.07314051 8.35764642 -56.5625 30.375 Z " fill="#2F3C41" transform="translate(100.5625,11.625)"/>
<path d="M0 0 C0.52722656 0.74765625 1.05445313 1.4953125 1.59765625 2.265625 C4.87168561 5.99216249 8.4805272 7.37290267 13 9.25 C13.80695313 9.600625 14.61390625 9.95125 15.4453125 10.3125 C18.94035616 11.81202368 22.28377994 13.15445555 26 14 C26.495 15.98 26.495 15.98 27 18 C28.98 18 30.96 18 33 18 C32.85795259 16.41632253 32.71119847 14.83306682 32.5625 13.25 C32.48128906 12.36828125 32.40007812 11.4865625 32.31640625 10.578125 C32.03761535 8.30649548 31.61209423 6.20148177 31 4 C32.66666667 4 34.33333333 4 36 4 C36.33 2.68 36.66 1.36 37 0 C37.66 0 38.32 0 39 0 C42.22065246 4.04575807 42.40360684 7.73364218 42.29296875 12.70703125 C42.28872391 13.43242599 42.28447906 14.15782074 42.28010559 14.90519714 C42.26339543 17.20801891 42.2257596 19.50994553 42.1875 21.8125 C42.17244316 23.3795446 42.1587565 24.946603 42.14648438 26.51367188 C42.11351731 30.34278957 42.06178992 34.17124334 42 38 C42.6084375 38.14050781 43.216875 38.28101563 43.84375 38.42578125 C47.95686512 39.52112169 50.47406842 41.41721095 53.3125 44.5625 C55.57877595 49.17898805 56.0543331 52.9519809 55 58 C52.2780417 62.9964714 48.30577163 65.99559738 43 68 C42.01 68 41.02 68 40 68 C39.690625 69.670625 39.690625 69.670625 39.375 71.375 C36.33929524 83.45368443 27.1038947 93.25282491 17 100 C14.08538277 101.63175624 11.13180937 102.84721709 8 104 C7.09121094 104.37253906 6.18242188 104.74507813 5.24609375 105.12890625 C-4.75510106 108.79473372 -14.51362013 108.37638053 -25 108 C-25 107.34 -25 106.68 -25 106 C-26.2375 106.0928125 -26.2375 106.0928125 -27.5 106.1875 C-31.88193696 105.95275338 -34.95495082 104.67381346 -39 103 C-39 102.34 -39 101.68 -39 101 C-40.2065625 100.814375 -40.2065625 100.814375 -41.4375 100.625 C-42.283125 100.41875 -43.12875 100.2125 -44 100 C-44.33 99.34 -44.66 98.68 -45 98 C-45.763125 97.54625 -46.52625 97.0925 -47.3125 96.625 C-49.98394547 95.00970739 -51.88209504 93.27478681 -54 91 C-53.2575 90.896875 -52.515 90.79375 -51.75 90.6875 C-48.82985982 89.95746496 -47.26812446 88.93210602 -45 87 C-44.319375 87.5775 -43.63875 88.155 -42.9375 88.75 C-31.57570907 97.45264837 -19.00746984 99.43875175 -5 98 C3.62981921 96.33737428 10.16013699 92.37148875 17 87 C17.99 86.2575 18.98 85.515 20 84.75 C22.20655298 82.97282198 22.20655298 82.97282198 24 80 C24.66 80 25.32 80 26 80 C26.18175781 79.43152344 26.36351562 78.86304688 26.55078125 78.27734375 C26.80214844 77.50519531 27.05351562 76.73304688 27.3125 75.9375 C27.55613281 75.18339844 27.79976563 74.42929688 28.05078125 73.65234375 C29 71 29 71 30.52734375 67.8828125 C32.33852848 63.66459035 32.47417131 59.76601526 32.51171875 55.22265625 C32.53864555 54.00563271 32.53864555 54.00563271 32.56611633 52.76402283 C32.61988463 50.19689992 32.65400616 47.6299593 32.6875 45.0625 C32.72070276 43.31182377 32.75519513 41.5611715 32.79101562 39.81054688 C32.87559126 35.54049686 32.94256074 31.27049775 33 27 C31.02 27.33 29.04 27.66 27 28 C27 28.66 27 29.32 27 30 C-6.947002 30.75214923 -6.947002 30.75214923 -20 24 C-22.59610042 22.97956746 -25.20672654 22.0157358 -27.828125 21.0625 C-30 20 -30 20 -32 17 C-30.35 17.33 -28.7 17.66 -27 18 C-26.67 16.02 -26.34 14.04 -26 12 C-22.74338256 12.40707718 -20.28007402 13.32018916 -17.4375 14.875 C-7.27905299 20.06793746 2.85697252 20.41101331 14 20 C13.34773438 19.76925781 12.69546875 19.53851563 12.0234375 19.30078125 C6.37699787 17.19377649 2.44724702 15.03354962 -2 11 C-2.928125 10.505 -3.85625 10.01 -4.8125 9.5 C-7 8 -7 8 -8 5.5 C-8 3 -8 3 -6.875 1.1875 C-4.30429796 -0.44061129 -2.99019342 -0.58345238 0 0 Z " fill="#303D41" transform="translate(113,60)"/>
<path d="M0 0 C1.10859375 0.00322266 2.2171875 0.00644531 3.359375 0.00976562 C4.50148438 0.01814453 5.64359375 0.02652344 6.8203125 0.03515625 C8.56828125 0.04192383 8.56828125 0.04192383 10.3515625 0.04882812 C13.21619895 0.06056844 16.08072883 0.07699055 18.9453125 0.09765625 C18.9453125 0.75765625 18.9453125 1.41765625 18.9453125 2.09765625 C21.2553125 2.09765625 23.5653125 2.09765625 25.9453125 2.09765625 C25.9453125 2.75765625 25.9453125 3.41765625 25.9453125 4.09765625 C27.2653125 4.09765625 28.5853125 4.09765625 29.9453125 4.09765625 C29.9453125 4.75765625 29.9453125 5.41765625 29.9453125 6.09765625 C30.8115625 6.32453125 31.6778125 6.55140625 32.5703125 6.78515625 C35.48979156 7.92050922 36.86130323 8.69037628 39.1328125 10.66015625 C41.75513231 13.24668052 41.75513231 13.24668052 44.9453125 14.09765625 C50.90795642 20.35116085 52.19250108 25.55523769 52.015625 34.12109375 C51.99242187 34.77335937 51.96921875 35.425625 51.9453125 36.09765625 C49.9653125 36.09765625 47.9853125 36.09765625 45.9453125 36.09765625 C45.4503125 34.11765625 45.4503125 34.11765625 44.9453125 32.09765625 C43.800625 32.00484375 43.800625 32.00484375 42.6328125 31.91015625 C37.36573813 30.74961444 32.78811371 28.42537171 27.9453125 26.09765625 C26.7903125 25.58203125 25.6353125 25.06640625 24.4453125 24.53515625 C21.9453125 23.09765625 21.9453125 23.09765625 20.3828125 20.91015625 C19.05859253 18.81530176 19.05859253 18.81530176 16.3828125 18.72265625 C13.77003141 18.87869489 13.77003141 18.87869489 11.9453125 21.09765625 C11.94235912 23.59724269 11.94235912 23.59724269 12.9453125 26.09765625 C14.81629488 27.88059061 14.81629488 27.88059061 17.1953125 29.22265625 C18.01257813 29.72667969 18.82984375 30.23070313 19.671875 30.75 C20.42210937 31.19472656 21.17234375 31.63945313 21.9453125 32.09765625 C22.8115625 32.65453125 23.6778125 33.21140625 24.5703125 33.78515625 C27.61344092 35.46688512 30.73037017 36.77385647 33.9453125 38.09765625 C33.9453125 38.42765625 33.9453125 38.75765625 33.9453125 39.09765625 C18.9223702 39.61240174 6.29445966 37.74851074 -7.0546875 30.09765625 C-7.7146875 29.10765625 -8.3746875 28.11765625 -9.0546875 27.09765625 C-10.71316927 26.08413961 -12.38134711 25.0864483 -14.0546875 24.09765625 C-16.17993296 22.52247432 -18.08787687 20.88150775 -20.0546875 19.09765625 C-20.0546875 18.43765625 -20.0546875 17.77765625 -20.0546875 17.09765625 C-20.8384375 16.87078125 -21.6221875 16.64390625 -22.4296875 16.41015625 C-25.0546875 15.09765625 -25.0546875 15.09765625 -26.3671875 12.47265625 C-26.5940625 11.68890625 -26.8209375 10.90515625 -27.0546875 10.09765625 C-24.1870917 6.94060829 -21.57065833 5.1376601 -17.6796875 3.41015625 C-16.76445313 2.99378906 -15.84921875 2.57742187 -14.90625 2.1484375 C-9.98287718 0.33420834 -5.21624243 -0.02688785 0 0 Z " fill="#88726A" transform="translate(94.0546875,41.90234375)"/>
<path d="M0 0 C3 2.125 3 2.125 5 5 C5.3125 8.3125 5.3125 8.3125 5 11 C4.34 11 3.68 11 3 11 C2.67 11.99 2.34 12.98 2 14 C-1.01868434 15.50934217 -3.67297229 15.17510672 -7 15 C-10 13 -10 13 -11 10 C-11.43921569 3.85098039 -11.43921569 3.85098039 -10 1.0625 C-6.73041718 -0.67446588 -3.54555509 -0.73118451 0 0 Z " fill="#334443" transform="translate(126,102)"/>
<path d="M0 0 C2.4375 1 2.4375 1 4 3 C4.55702102 7.38654054 4.71860104 9.71901555 2.5625 13.5625 C-0.83109674 15.466225 -3.14935483 15.2953081 -6.93359375 14.671875 C-9 14 -9 14 -11.125 11.8125 C-12.20174927 8.35152019 -12.1227444 6.44308284 -11 3 C-7.85010439 -0.63449494 -4.59570403 -0.49239686 0 0 Z " fill="#314044" transform="translate(80,102)"/>
<path d="M0 0 C1.67542976 0.28604898 3.34385343 0.61781233 5 1 C5.625 3.3125 5.625 3.3125 6 6 C4 9 4 9 2.3125 9.6875 C-1.99619912 10.26975664 -5.85969828 10.38010057 -10 9 C-12 6 -12 6 -11.625 3.3125 C-11.41875 2.549375 -11.2125 1.78625 -11 1 C-10.28972656 1.01160156 -9.57945313 1.02320313 -8.84765625 1.03515625 C-7.92855469 1.04417969 -7.00945312 1.05320313 -6.0625 1.0625 C-4.68771484 1.07990234 -4.68771484 1.07990234 -3.28515625 1.09765625 C-1.03406673 1.25949049 -1.03406673 1.25949049 0 0 Z " fill="#535C5E" transform="translate(103,134)"/>
<path d="M0 0 C0.66 0 1.32 0 2 0 C2 0.66 2 1.32 2 2 C2.66 2 3.32 2 4 2 C4.42691034 10.44333791 4.63421641 16.75903687 0 24 C-0.66 24 -1.32 24 -2 24 C-2.05819424 20.75007554 -2.09366116 17.50028565 -2.125 14.25 C-2.14175781 13.32960938 -2.15851562 12.40921875 -2.17578125 11.4609375 C-2.18222656 10.57148437 -2.18867187 9.68203125 -2.1953125 8.765625 C-2.20578613 7.94868164 -2.21625977 7.13173828 -2.22705078 6.29003906 C-1.97829916 3.78112482 -1.25700129 2.16604375 0 0 Z " fill="#786C6F" transform="translate(55,64)"/>
<path d="M0 0 C1.98 0 3.96 0 6 0 C6 0.66 6 1.32 6 2 C6.66 2 7.32 2 8 2 C8 3.32 8 4.64 8 6 C8.66 6.66 9.32 7.32 10 8 C8.54077307 7.88590407 7.08259402 7.75834456 5.625 7.625 C4.40683594 7.52058594 4.40683594 7.52058594 3.1640625 7.4140625 C1 7 1 7 -1 5 C-0.625 2.375 -0.625 2.375 0 0 Z " fill="#2A3638" transform="translate(92,135)"/>
<path d="M0 0 C1.87187475 3.74374951 2.11716784 7.09524399 2.0625 11.25 C2.05347656 12.14203125 2.04445313 13.0340625 2.03515625 13.953125 C2.02355469 14.62859375 2.01195312 15.3040625 2 16 C1.01 16.33 0.02 16.66 -1 17 C-2.95258928 13.76320778 -3.17783445 11.66979261 -2.75 7.9375 C-2.66234375 7.08027344 -2.5746875 6.22304687 -2.484375 5.33984375 C-2 3 -2 3 0 0 Z " fill="#3E474C" transform="translate(34,103)"/>
<path d="M0 0 C0 0.66 0 1.32 0 2 C0.66 2 1.32 2 2 2 C2.24042276 6.08718695 1.42258812 9.17679443 0 13 C-2.72647685 10.64531545 -3.98756342 8.4591583 -5 5 C-4.75 2.75 -4.75 2.75 -4 1 C-2 0 -2 0 0 0 Z " fill="#283539" transform="translate(39,103)"/>
<path d="M0 0 C0 3.96 0 7.92 0 12 C-1.32 11.34 -2.64 10.68 -4 10 C-4.9375 6.5625 -4.9375 6.5625 -5 3 C-3.42599605 0.67647035 -2.82844233 0 0 0 Z " fill="#BDCCD1" transform="translate(45,107)"/>
<path d="M0 0 C1.98 0.99 1.98 0.99 4 2 C4.9375 4.9375 4.9375 4.9375 5 8 C3.6875 9.875 3.6875 9.875 2 11 C1.34 11 0.68 11 0 11 C0 7.37 0 3.74 0 0 Z " fill="#D3DFE4" transform="translate(155,107)"/>
<path d="M0 0 C0.66 0.33 1.32 0.66 2 1 C0.61240749 2.61130023 -0.78545623 4.21375841 -2.1875 5.8125 C-2.96480469 6.70582031 -3.74210937 7.59914063 -4.54296875 8.51953125 C-6.89417119 10.8931617 -9.06791184 12.43240047 -12 14 C-10.43387807 10.15588253 -7.97905879 7.84049791 -5 5 C-3.6078125 3.6078125 -3.6078125 3.6078125 -2.1875 2.1875 C-1.1046875 1.1046875 -1.1046875 1.1046875 0 0 Z " fill="#545F65" transform="translate(61,44)"/>
<path d="M0 0 C1.10859375 0.00322266 2.2171875 0.00644531 3.359375 0.00976562 C4.50148438 0.01814453 5.64359375 0.02652344 6.8203125 0.03515625 C8.56828125 0.04192383 8.56828125 0.04192383 10.3515625 0.04882812 C13.21619895 0.06056844 16.08072883 0.07699055 18.9453125 0.09765625 C18.9453125 0.42765625 18.9453125 0.75765625 18.9453125 1.09765625 C18.25904785 1.1227124 17.5727832 1.14776855 16.86572266 1.17358398 C13.76705433 1.28937052 10.66870327 1.4121751 7.5703125 1.53515625 C6.49007812 1.57447266 5.40984375 1.61378906 4.296875 1.65429688 C3.265625 1.69619141 2.234375 1.73808594 1.171875 1.78125 C-0.25777588 1.83623657 -0.25777588 1.83623657 -1.71630859 1.89233398 C-4.07601099 1.9552909 -4.07601099 1.9552909 -6.0546875 3.09765625 C-8.06269206 2.81653561 -10.06482801 2.48697658 -12.0546875 2.09765625 C-12.0546875 1.76765625 -12.0546875 1.43765625 -12.0546875 1.09765625 C-7.9794241 0.3298915 -4.14463303 -0.02136409 0 0 Z " fill="#6C665F" transform="translate(94.0546875,41.90234375)"/>
<path d="M0 0 C1.98 0 3.96 0 6 0 C6.33 0.99 6.66 1.98 7 3 C8.32796291 3.35412344 9.66216607 3.68521554 11 4 C12.75 5.5625 12.75 5.5625 14 7 C13.01 7.495 13.01 7.495 12 8 C9.1796875 6.6015625 9.1796875 6.6015625 5.875 4.625 C4.77929688 3.97789063 3.68359375 3.33078125 2.5546875 2.6640625 C1.71164063 2.11492188 0.86859375 1.56578125 0 1 C0 0.67 0 0.34 0 0 Z " fill="#CCD3D4" transform="translate(138,20)"/>
<path d="M0 0 C0.66 0.33 1.32 0.66 2 1 C0.98502564 4.04492309 0.4178943 5.0298639 -2 7 C-4 7.8125 -4 7.8125 -6 8 C-6.99 7.34 -7.98 6.68 -9 6 C-6.03 4.02 -3.06 2.04 0 0 Z " fill="#CFD8DB" transform="translate(154,172)"/>
<path d="M0 0 C0.67578125 1.76953125 0.67578125 1.76953125 1 4 C-0.14453125 5.88671875 -0.14453125 5.88671875 -1.8125 7.6875 C-2.35519531 8.28949219 -2.89789063 8.89148438 -3.45703125 9.51171875 C-5 11 -5 11 -7 12 C-6.67566492 6.64847115 -3.50295176 3.71719957 0 0 Z " fill="#D2DDDE" transform="translate(61,92)"/>
<path d="M0 0 C3.25524265 3.02272532 5.61820737 6.25718301 8 10 C5.625 9.75 5.625 9.75 3 9 C1.6875 6.9375 1.6875 6.9375 1 5 C0.34 5 -0.32 5 -1 5 C-0.67 3.35 -0.34 1.7 0 0 Z " fill="#BEC5CA" transform="translate(51,141)"/>
<path d="M0 0 C3.625 0.375 3.625 0.375 7 1 C5.875 2.5 5.875 2.5 4 4 C0.8125 4.1875 0.8125 4.1875 -2 4 C-2 2 -2 2 0 0 Z " fill="#253238" transform="translate(138,84)"/>
<path d="M0 0 C1.45047396 2.90094791 0.45356803 4.55972596 -0.4375 7.625 C-0.72496094 8.62789062 -1.01242187 9.63078125 -1.30859375 10.6640625 C-1.53675781 11.43492188 -1.76492188 12.20578125 -2 13 C-2.33 13 -2.66 13 -3 13 C-3.08086147 11.20906809 -3.13912702 9.41710372 -3.1875 7.625 C-3.22230469 6.62726563 -3.25710938 5.62953125 -3.29296875 4.6015625 C-3.14794922 3.31378906 -3.14794922 3.31378906 -3 2 C-2.01 1.34 -1.02 0.68 0 0 Z " fill="#E0E7E9" transform="translate(13,71)"/>
<path d="M0 0 C1.32 0.66 2.64 1.32 4 2 C3.01 2.33 2.02 2.66 1 3 C0.87625 3.7425 0.7525 4.485 0.625 5.25 C0.04513299 7.80141485 -0.73708739 9.7267573 -2 12 C-3.231394 9.53721199 -3.07159196 7.7204945 -3 5 C-2.01 4.67 -1.02 4.34 0 4 C0 2.68 0 1.36 0 0 Z " fill="#CED5D7" transform="translate(20,52)"/>
<path d="M0 0 C0.66 0.66 1.32 1.32 2 2 C1.34 2 0.68 2 0 2 C0 1.34 0 0.68 0 0 Z M0 2 C0 2.66 0 3.32 0 4 C-0.99 4 -1.98 4 -3 4 C-3.33 4.99 -3.66 5.98 -4 7 C-5.32 6.34 -6.64 5.68 -8 5 C-4.93882432 2.37613513 -4.26826873 2 0 2 Z " fill="#364043" transform="translate(41,158)"/>
<path d="M0 0 C0.66 0.33 1.32 0.66 2 1 C2.625 3.5625 2.625 3.5625 3 6 C1.68 6.33 0.36 6.66 -1 7 C-1.625 5.1875 -1.625 5.1875 -2 3 C-1.34 2.01 -0.68 1.02 0 0 Z M2 2 C4 3 4 3 4 3 Z " fill="#242F2F" transform="translate(104,135)"/>
<path d="M0 0 C0.66 0 1.32 0 2 0 C1.67 0.99 1.34 1.98 1 3 C0.360625 3.309375 -0.27875 3.61875 -0.9375 3.9375 C-3.45468915 5.2342338 -3.96886948 6.4221737 -5 9 C-6.32 8.67 -7.64 8.34 -9 8 C-8.360625 7.731875 -7.72125 7.46375 -7.0625 7.1875 C-4.66868314 6.11332248 -4.66868314 6.11332248 -4 3 C-1.9375 2.3125 -1.9375 2.3125 0 2 C0 1.34 0 0.68 0 0 Z " fill="#576365" transform="translate(44,30)"/>
<path d="M0 0 C1.32 0 2.64 0 4 0 C4.33 1.98 4.66 3.96 5 6 C4.01 6.495 4.01 6.495 3 7 C3 6.34 3 5.68 3 5 C2.34 5 1.68 5 1 5 C0.67 3.35 0.34 1.7 0 0 Z " fill="#414C50" transform="translate(48,134)"/>
<path d="M0 0 C2.31 0.66 4.62 1.32 7 2 C7 2.66 7 3.32 7 4 C3.625 4.125 3.625 4.125 0 4 C-0.66 3.34 -1.32 2.68 -2 2 C-1.34 2 -0.68 2 0 2 C0 1.34 0 0.68 0 0 Z " fill="#856D77" transform="translate(118,76)"/>
<path d="M0 0 C0.66 0.33 1.32 0.66 2 1 C0.68 2.32 -0.64 3.64 -2 5 C-2.99 4.67 -3.98 4.34 -5 4 C-5 4.66 -5 5.32 -5 6 C-5.99 5.67 -6.98 5.34 -8 5 C-5.31158141 2.74754119 -3.35358125 1.11786042 0 0 Z " fill="#BDCACB" transform="translate(60,31)"/>
<path d="M0 0 C2.375 0.25 2.375 0.25 5 1 C6.3125 3.0625 6.3125 3.0625 7 5 C6.01 5 5.02 5 4 5 C1.8125 2.5 1.8125 2.5 0 0 Z " fill="#4C5759" transform="translate(41,169)"/>
<path d="M0 0 C0.66 0.33 1.32 0.66 2 1 C2.73075648 3.3140622 3.40138258 5.64828869 4 8 C2.0625 7.3125 2.0625 7.3125 0 6 C-0.8125 3.4375 -0.8125 3.4375 -1 1 C-0.67 0.67 -0.34 0.34 0 0 Z " fill="#484043" transform="translate(106,62)"/>
<path d="M0 0 C0.66 0 1.32 0 2 0 C0.66511872 3.59391114 -0.96022723 6.75490696 -3 10 C-3.33 9.34 -3.66 8.68 -4 8 C-3.22265625 6.0546875 -3.22265625 6.0546875 -2.0625 3.875 C-1.49208984 2.78832031 -1.49208984 2.78832031 -0.91015625 1.6796875 C-0.60980469 1.12539062 -0.30945313 0.57109375 0 0 Z " fill="#253134" transform="translate(146,127)"/>
<path d="M0 0 C-0.33 1.32 -0.66 2.64 -1 4 C-1.99 3.34 -2.98 2.68 -4 2 C-5.9896995 1.60986284 -7.99019869 1.26797351 -10 1 C-10 0.67 -10 0.34 -10 0 C-3.375 -1.125 -3.375 -1.125 0 0 Z " fill="#C2CCCE" transform="translate(130,101)"/>
<path d="M0 0 C-0.66 2.31 -1.32 4.62 -2 7 C-2.33 5.68 -2.66 4.36 -3 3 C-3.66 3 -4.32 3 -5 3 C-5 2.34 -5 1.68 -5 1 C-3 0 -3 0 0 0 Z " fill="#304049" transform="translate(65,84)"/>
<path d="M0 0 C0.66 1.32 1.32 2.64 2 4 C1.01 5.485 1.01 5.485 0 7 C-0.66 7 -1.32 7 -2 7 C-2.33 7.99 -2.66 8.98 -3 10 C-2.39009109 6.44219804 -1.4216319 3.3171411 0 0 Z " fill="#AEBBBF" transform="translate(25,67)"/>
<path d="M0 0 C0.99 0.66 1.98 1.32 3 2 C1.35 3.32 -0.3 4.64 -2 6 C-2.66 5.34 -3.32 4.68 -4 4 C-2.68 3.34 -1.36 2.68 0 2 C0 1.34 0 0.68 0 0 Z " fill="#262C2E" transform="translate(64,146)"/>
<path d="M0 0 C1.65 0 3.3 0 5 0 C5 0.66 5 1.32 5 2 C5.66 2.33 6.32 2.66 7 3 C6.67 3.66 6.34 4.32 6 5 C2.83884224 3.63016497 2.0072908 3.0109362 0 0 Z " fill="#CBD0D1" transform="translate(67,146)"/>
<path d="M0 0 C1.0625 1.8125 1.0625 1.8125 2 4 C1.67 4.99 1.34 5.98 1 7 C0.34 7 -0.32 7 -1 7 C-1.625 5.1875 -1.625 5.1875 -2 3 C-1.34 2.01 -0.68 1.02 0 0 Z " fill="#475255" transform="translate(170,141)"/>
<path d="M0 0 C0.66 0 1.32 0 2 0 C1.67 2.64 1.34 5.28 1 8 C-0.5 6.6875 -0.5 6.6875 -2 5 C-2 4.01 -2 3.02 -2 2 C-1.34 2 -0.68 2 0 2 C0 1.34 0 0.68 0 0 Z " fill="#1F2D31" transform="translate(38,108)"/>
<path d="M0 0 C1.65 0 3.3 0 5 0 C3.25 2.0625 3.25 2.0625 1 4 C-1.25 3.75 -1.25 3.75 -3 3 C-2.01 2.67 -1.02 2.34 0 2 C0 1.34 0 0.68 0 0 Z " fill="#687174" transform="translate(39,98)"/>
<path d="M0 0 C1.9375 0.6875 1.9375 0.6875 2.9375 2.6875 C0.9575 3.0175 -1.0225 3.3475 -3.0625 3.6875 C-3.3925 2.6975 -3.7225 1.7075 -4.0625 0.6875 C-2.0625 -0.3125 -2.0625 -0.3125 0 0 Z " fill="#2E322D" transform="translate(111.0625,61.3125)"/>
<path d="M0 0 C3.465 1.485 3.465 1.485 7 3 C5.02 3.99 5.02 3.99 3 5 C2.67 4.01 2.34 3.02 2 2 C1.34 2 0.68 2 0 2 C0 1.34 0 0.68 0 0 Z " fill="#49575A" transform="translate(52,167)"/>
<path d="M0 0 C0.66 0.33 1.32 0.66 2 1 C0.29374499 3.78388975 -0.47626739 4.85384206 -3.6875 5.75 C-4.8321875 5.87375 -4.8321875 5.87375 -6 6 C-4 4 -2 2 0 0 Z " fill="#5A676C" transform="translate(153,161)"/>
<path d="M0 0 C2.475 0.495 2.475 0.495 5 1 C5.33 2.32 5.66 3.64 6 5 C3.98079663 3.69593116 1.98075027 2.36176581 0 1 C0 0.67 0 0.34 0 0 Z " fill="#CDD4DC" transform="translate(44,160)"/>
<path d="M0 0 C0.66 1.32 1.32 2.64 2 4 C3.65 4 5.3 4 7 4 C7 4.33 7 4.66 7 5 C4.69 5.33 2.38 5.66 0 6 C0 4.02 0 2.04 0 0 Z " fill="#545555" transform="translate(138,74)"/>
<path d="M0 0 C0.66 0 1.32 0 2 0 C2 1.98 2 3.96 2 6 C1.01 6 0.02 6 -1 6 C-0.67 4.02 -0.34 2.04 0 0 Z " fill="#505F62" transform="translate(185,73)"/>
<path d="M0 0 C0.66 0 1.32 0 2 0 C1.625 2.9375 1.625 2.9375 1 6 C0.01 6.495 0.01 6.495 -1 7 C-0.67 4.69 -0.34 2.38 0 0 Z " fill="#20312E" transform="translate(117,104)"/>
<path d="M0 0 C0.99 0.33 1.98 0.66 3 1 C2.34 3.31 1.68 5.62 1 8 C0.67 8 0.34 8 0 8 C0 5.36 0 2.72 0 0 Z " fill="#CFDFE4" transform="translate(68,68)"/>
<path d="M0 0 C0.99 0.33 1.98 0.66 3 1 C2.34 2.32 1.68 3.64 1 5 C0.01 3.68 -0.98 2.36 -2 1 C-1.34 0.67 -0.68 0.34 0 0 Z " fill="#C6D2D5" transform="translate(145,48)"/>
<path d="M0 0 C2.97 0.495 2.97 0.495 6 1 C6.33 1.99 6.66 2.98 7 4 C4.97954558 3.39816251 2.97888961 2.72693904 1 2 C0.67 1.34 0.34 0.68 0 0 Z " fill="#193132" transform="translate(122,38)"/>
<path d="M0 0 C0.99 0.33 1.98 0.66 3 1 C1.1875 2.5625 1.1875 2.5625 -1 4 C-1.99 3.67 -2.98 3.34 -4 3 C-2.1875 1.4375 -2.1875 1.4375 0 0 Z " fill="#20323C" transform="translate(119,155)"/>
<path d="M0 0 C0.99 0.33 1.98 0.66 3 1 C1.68 2.32 0.36 3.64 -1 5 C-0.67 3.35 -0.34 1.7 0 0 Z " fill="#222E34" transform="translate(178,127)"/>
<path d="M0 0 C0.99 0.33 1.98 0.66 3 1 C2.34 1.66 1.68 2.32 1 3 C0.35232207 5.57061311 0.35232207 5.57061311 0 8 C-0.33 8 -0.66 8 -1 8 C-1.04241723 5.66705225 -1.04092937 3.33297433 -1 1 C-0.67 0.67 -0.34 0.34 0 0 Z " fill="#1B292D" transform="translate(71,105)"/>
<path d="M0 0 C1.65 0.33 3.3 0.66 5 1 C3.68 1.99 2.36 2.98 1 4 C0.34 3.67 -0.32 3.34 -1 3 C-0.67 2.01 -0.34 1.02 0 0 Z " fill="#D2D9DD" transform="translate(63,16)"/>
<path d="M0 0 C1.65 0.33 3.3 0.66 5 1 C4.67 1.66 4.34 2.32 4 3 C2.35 3 0.7 3 -1 3 C-0.67 2.01 -0.34 1.02 0 0 Z " fill="#4E5A5C" transform="translate(121,185)"/>
<path d="M0 0 C0.66 0 1.32 0 2 0 C1.67 1.32 1.34 2.64 1 4 C0.01 4 -0.98 4 -2 4 C-2 3.34 -2 2.68 -2 2 C-1.34 2 -0.68 2 0 2 C0 1.34 0 0.68 0 0 Z " fill="#DAE7EC" transform="translate(150,160)"/>
<path d="M0 0 C1.32 0 2.64 0 4 0 C4 1.65 4 3.3 4 5 C3.67 4.34 3.34 3.68 3 3 C2.34 3 1.68 3 1 3 C0.67 2.01 0.34 1.02 0 0 Z " fill="#434D50" transform="translate(20,145)"/>
<path d="M0 0 C1.65 0 3.3 0 5 0 C4.34 1.32 3.68 2.64 3 4 C1.97895449 3.02149805 0.9793879 2.02019573 0 1 C0 0.67 0 0.34 0 0 Z " fill="#EBF3F6" transform="translate(140,88)"/>
<path d="M0 0 C2.4375 0.375 2.4375 0.375 5 1 C5.33 1.66 5.66 2.32 6 3 C4.35 3 2.7 3 1 3 C0.67 2.01 0.34 1.02 0 0 Z " fill="#7F7274" transform="translate(139,75)"/>
<path d="M0 0 C1.98 0.495 1.98 0.495 4 1 C2.68 2.32 1.36 3.64 0 5 C0 3.33333333 0 1.66666667 0 0 Z " fill="#DBE6E8" transform="translate(25,45)"/>
<path d="M0 0 C0.66 0.33 1.32 0.66 2 1 C0.68 2.32 -0.64 3.64 -2 5 C-2 3.68 -2 2.36 -2 1 C-1.34 0.67 -0.68 0.34 0 0 Z " fill="#D4DEE4" transform="translate(162,150)"/>
<path d="M0 0 C0.99 0 1.98 0 3 0 C2.34 1.65 1.68 3.3 1 5 C0.67 5 0.34 5 0 5 C0 3.35 0 1.7 0 0 Z " fill="#203034" transform="translate(150,128)"/>
<path d="M0 0 C1.485 0.99 1.485 0.99 3 2 C2.67 2.99 2.34 3.98 2 5 C2 4.34 2 3.68 2 3 C1.01 3.33 0.02 3.66 -1 4 C-0.67 2.68 -0.34 1.36 0 0 Z " fill="#3A4647" transform="translate(55,61)"/>
<path d="M0 0 C0.33 0.66 0.66 1.32 1 2 C0.67 2.66 0.34 3.32 0 4 C-1.32 3.67 -2.64 3.34 -4 3 C-2.68 2.01 -1.36 1.02 0 0 Z " fill="#4F5759" transform="translate(39,35)"/>
<path d="M0 0 C1.65 0 3.3 0 5 0 C4.67 0.99 4.34 1.98 4 3 C3.34 3 2.68 3 2 3 C2 2.34 2 1.68 2 1 C1.34 0.67 0.68 0.34 0 0 Z " fill="#354246" transform="translate(140,177)"/>
<path d="M0 0 C0.66 0.99 1.32 1.98 2 3 C0.68 3.33 -0.64 3.66 -2 4 C-1.34 2.68 -0.68 1.36 0 0 Z " fill="#C1CCCE" transform="translate(147,142)"/>
<path d="M0 0 C0.66 0 1.32 0 2 0 C2.33 1.32 2.66 2.64 3 4 C1.68 3.67 0.36 3.34 -1 3 C-0.67 2.01 -0.34 1.02 0 0 Z " fill="#515C5D" transform="translate(137,140)"/>
<path d="M0 0 C0.66 0 1.32 0 2 0 C2.33 1.32 2.66 2.64 3 4 C2.01 4 1.02 4 0 4 C0 2.68 0 1.36 0 0 Z " fill="#867B79" transform="translate(69,51)"/>
<path d="M0 0 C0.66 1.32 1.32 2.64 2 4 C1.01 4.33 0.02 4.66 -1 5 C-0.67 3.35 -0.34 1.7 0 0 Z " fill="#CDD5D9" transform="translate(51,141)"/>
<path d="M0 0 C0.99 0 1.98 0 3 0 C2.67 0.99 2.34 1.98 2 3 C1.34 3 0.68 3 0 3 C0 2.01 0 1.02 0 0 Z " fill="#243439" transform="translate(80,112)"/>
<path d="M0 0 C1.98 0.99 1.98 0.99 4 2 C2.68 2 1.36 2 0 2 C0 1.34 0 0.68 0 0 Z " fill="#D5E0E5" transform="translate(60,41)"/>
<path d="M0 0 C1.98 0.99 1.98 0.99 4 2 C3.01 2.33 2.02 2.66 1 3 C0.67 2.01 0.34 1.02 0 0 Z " fill="#DFE8EC" transform="translate(138,168)"/>
<path d="M0 0 C0.66 0.33 1.32 0.66 2 1 C1.67 1.99 1.34 2.98 1 4 C0.34 3.34 -0.32 2.68 -1 2 C-0.67 1.34 -0.34 0.68 0 0 Z " fill="#51555A" transform="translate(174,51)"/>
<path d="M0 0 C0.99 0.33 1.98 0.66 3 1 C2.34 1.66 1.68 2.32 1 3 C0.67 2.01 0.34 1.02 0 0 Z " fill="#D4DBDD" transform="translate(78,76)"/>
<path d="M0 0 C0.99 0.33 1.98 0.66 3 1 C2.34 1.66 1.68 2.32 1 3 C0.67 2.01 0.34 1.02 0 0 Z " fill="#324044" transform="translate(37,45)"/>
</svg>
